<svg viewBox="0 0 82.1 83.36" xmlns="http://www.w3.org/2000/svg"><path d="m76.51 83.36a4.73 4.73 0 0 1 -2.4-.65l-11.57-6.71a41.13 41.13 0 0 1 -22 6.07 40.42 40.42 0 0 1 -15.45-3.24 2.18 2.18 0 1 1 1.71-4 36.59 36.59 0 0 0 34.46-3.19l1.12-.74 13.9 8a.4.4 0 0 0 .42 0 .4.4 0 0 0 .21-.37c0-.4.86-35.37.8-38.27-.36-18.9-16.71-35.34-35.59-35.88a36.63 36.63 0 0 0 -26.69 62.84 2.19 2.19 0 1 1 -3.06 3.12 41 41 0 0 1 29.87-70.34c21.18.61 39.43 19 39.86 40.21.06 3-.76 37-.79 38.4a4.82 4.82 0 0 1 -4.8 4.75z" fill="#ed3724"/></svg>