<svg viewBox="0 0 82.36 85.25" xmlns="http://www.w3.org/2000/svg"><g fill="#ed3724"><path d="m72.21 85.25h-31a2.15 2.15 0 1 1 0-4.3h31a5.86 5.86 0 0 0 5.86-5.86v-30.86a5.84 5.84 0 0 0 -1.53-3.95l-31-34.07a5.84 5.84 0 0 0 -8.66 0l-31 34.07a5.84 5.84 0 0 0 -1.53 3.95v30.86a5.86 5.86 0 0 0 5.8 5.91h13.77a2.15 2.15 0 1 1 0 4.3h-13.77a10.17 10.17 0 0 1 -10.15-10.21v-30.86a10.17 10.17 0 0 1 2.64-6.84l31-34.07a10.14 10.14 0 0 1 15 0l31 34.07a10.19 10.19 0 0 1 2.64 6.84v30.86a10.17 10.17 0 0 1 -10.07 10.16z"/><path d="m61.1 44.62h-22.22a2 2 0 0 1 0-4h22.22a2 2 0 0 1 0 4z"/></g></svg>