<svg viewBox="0 0 435.53 69.46" xmlns="http://www.w3.org/2000/svg"><g fill="#040000"><path d="m28.56.2a28.55 28.55 0 0 0 -28.56 28.55s0 33.18 0 33.18a7.53 7.53 0 1 0 15.05 0v-8a28.55 28.55 0 1 0 13.51-53.73zm0 42.07a13.52 13.52 0 1 1 13.52-13.52 13.51 13.51 0 0 1 -13.52 13.52z"/><path d="m428 .13a7.52 7.52 0 0 0 -7.53 7.52v21.74l-20.6-25.62a9.47 9.47 0 0 0 -7.48-3.67 9.49 9.49 0 0 0 -9.48 9.48v40.42a7.53 7.53 0 0 0 15 0v-22.31l20.62 26.25a9.57 9.57 0 0 0 1.9 1.81l.21.13a9.2 9.2 0 0 0 1.72.93c.22.09.45.18.67.25a7.67 7.67 0 0 0 .78.23h.09a9.1 9.1 0 0 0 2.08.25 9.47 9.47 0 0 0 9.47-9.47v-40.42a7.52 7.52 0 0 0 -7.45-7.52z"/><path d="m294.44 15.22a13.05 13.05 0 0 1 5.42 1.12 7.55 7.55 0 0 0 8.58-1.56 7.47 7.47 0 0 0 -2.3-12 27.93 27.93 0 0 0 -11.7-2.46 28.24 28.24 0 1 0 0 56.47 29.31 29.31 0 0 0 11.72-2.49 7.45 7.45 0 0 0 2.29-12 7.56 7.56 0 0 0 -8.57-1.56 13.48 13.48 0 0 1 -18.88-12.14 13.35 13.35 0 0 1 13.44-13.38z"/><path d="m346.68.31a28.55 28.55 0 1 0 28.6 28.59 28.53 28.53 0 0 0 -28.6-28.59zm12.69 29.44a11.43 11.43 0 0 1 -5.67 13.69 11.19 11.19 0 0 1 -15.07-5.15 11.27 11.27 0 0 1 -1.08-3.94.42.42 0 0 0 -.31-.36 8.14 8.14 0 0 1 -5.43-4.31 8.26 8.26 0 0 1 3.69-11 7.93 7.93 0 0 1 3.54-.83 8.11 8.11 0 0 1 4.84 1.61.37.37 0 0 0 .35.06.42.42 0 0 0 .27-.25 9.28 9.28 0 0 1 4.6-5.22 9.13 9.13 0 0 1 7.08-.47 9.37 9.37 0 0 1 3.3 15.73.42.42 0 0 0 -.11.44z"/><path d="m126.29 44.24a15.3 15.3 0 0 1 -2.29-1.89 7.52 7.52 0 0 1 -.66-.77 11.62 11.62 0 0 1 -2.34-8.47 28.58 28.58 0 1 0 -10.91 18.17 30.71 30.71 0 0 0 2.29 2.57 25.77 25.77 0 0 0 6.11 4.27 8 8 0 0 0 11.69-7.07 8.31 8.31 0 0 0 -3.89-6.81zm-20-14.31a13.52 13.52 0 1 1 -14.83-14.82 13.55 13.55 0 0 1 14.82 14.82z"/><path d="m165.94.2a28.55 28.55 0 0 0 -28.55 28.55s0 33.18 0 33.18a7.53 7.53 0 1 0 15.05 0v-8a28.55 28.55 0 1 0 13.5-53.73zm0 42.07a13.52 13.52 0 1 1 13.51-13.52 13.51 13.51 0 0 1 -13.51 13.52z"/><path d="m251.27.46a7.53 7.53 0 0 0 -7.52 7.54v21s-.43 13.38-13.51 13.38-13.52-13.38-13.52-13.38v-21a7.52 7.52 0 1 0 -15 0v21c0 13.06 8.31 28.28 28.56 28.28 18.89 0 28.56-15.4 28.56-28.28v-21a7.53 7.53 0 0 0 -7.57-7.54z"/></g></svg>