<svg enable-background="new 0 0 126 154" viewBox="0 0 126 154" xmlns="http://www.w3.org/2000/svg"><g clip-rule="evenodd" fill="#d2201d" fill-rule="evenodd"><path d="m62.9.3c-34.7 0-62.9 28.2-62.9 63v9.6l24-19.9c1.8-1.5 3.7-2.6 5.8-3.4 2.4-.9 4.9-1.3 7.4-1.3 3.8.1 7.5 1.3 10.7 3.6 1.3.9 2.6 2.1 3.6 3.3 6.9 8.1 6 20.3-1.9 27.3 0 0 0 0-.1.1 0 0-.1.1-.1.1s0 0-.1.1-.1.1-.2.2 0 0-.1.1c0 0-.1.1-.2.1-.1.1-.3.3-.5.4.1-.1.2-.2.3-.3 0 0 .1-.1.1-.2 0 0 0 0 .1-.1-.2.2-.4.4-.6.6-.1.1-.2.1-.3.2.2.1.1.2 0 .2-.2.1-.3.3-.5.4-.8.6-1.7 1.4-2.7 2.3-5.7 5-15.5 13.3-25.3 21.6-.3.3-.6.5-.9.8s-.7.6-1 .8c-.3.3-.7.6-1 .8 0 0-.1.1-.1.1-.5.4-1 .8-1.5 1.3-.7.6-1.4 1.2-2.1 1.8-.1.1-.3.2-.4.3-3.8 3.3-6.9 6.9-9.1 10.6-.9 1.6-1.6 3.2-2.2 4.8-.5 1.5-.8 3-.9 4.5-.2.7-.2 1.9-.2 1.9 0 1.3.3 3.1.6 4.6.3 1.4 1.1 3.1 1.1 3.1 2.7 5.5 8.3 9.3 14.9 9.3 9.1 0 16.6-7.4 16.6-16.6v-17.7c8.9 4.8 19 7.5 29.8 7.5 34.7 0 62.9-28.2 62.9-63-.1-34.7-28.3-62.9-63-62.9zm0 92.8c-4.3 0-8.5-.9-12.2-2.6l3.4-2.9c10.6-9.5 11.8-26 2.6-36.8-1.4-1.7-3.1-3.2-4.9-4.5-3-2.1-6.4-3.5-9.8-4.3 5.4-5.3 12.8-8.6 20.9-8.6 16.4 0 29.8 13.3 29.8 29.8s-13.4 29.9-29.8 29.9z"/><path d="m31.3 72.1c2.2 2.5 3.1 5.7 3.9 8 1 2.7 1.9 4.1 4.9 1.6l.1-.1 3.9-3.2.1-.1.1-.1c5.6-4.7 6.3-13 1.5-18.5-4.8-5.5-13.2-6.2-18.9-1.5 0 0-.1.1-.1.1l-3.9 3.3-.1.1c-5.7 4.7 3.5 4.9 8.5 10.4z"/></g></svg>