<svg viewBox="0 0 85.11 87.39" xmlns="http://www.w3.org/2000/svg"><path d="m50.9 87.39h-16.68a4 4 0 0 1 -4-3.5l-1.45-9.89a33.43 33.43 0 0 1 -5.52-3.21l-9.34 3.75a4.11 4.11 0 0 1 -5-1.81l-8.36-14.4a4.11 4.11 0 0 1 1-5.24l7.92-6.19a28.53 28.53 0 0 1 0-6.4l-7.92-6.19a4.08 4.08 0 0 1 -.99-5.31l8.33-14.37a4 4 0 0 1 5-1.77l9.38 3.76a33.24 33.24 0 0 1 5.5-3.21l1.43-9.94a4 4 0 0 1 4-3.47h16.7a4 4 0 0 1 4 3.5l1.42 9.91a32.67 32.67 0 0 1 5.52 3.2l9.34-3.75a4.12 4.12 0 0 1 5.05 1.82l8.31 14.38a4.1 4.1 0 0 1 -1 5.24l-7.92 6.2a30.2 30.2 0 0 1 0 6.4l7.91 6.19a4.1 4.1 0 0 1 1 5.2l-8.3 14.47a4 4 0 0 1 -5 1.78l-9.37-3.76a34.39 34.39 0 0 1 -5.51 3.22l-1.43 10a4 4 0 0 1 -4.02 3.39zm-27.58-20.68a3.54 3.54 0 0 1 2.08.68 28.59 28.59 0 0 0 5.24 3 3.47 3.47 0 0 1 2 2.7l1.47 10.22h16.74l1.53-10.25a3.5 3.5 0 0 1 2-2.7 29.62 29.62 0 0 0 5.26-3.07 3.5 3.5 0 0 1 3.45-.29l9.61 3.86 8.41-14.49a.11.11 0 0 0 0-.1l-8.11-6.39a3.5 3.5 0 0 1 -1.32-3.15 25.68 25.68 0 0 0 0-6.07 3.48 3.48 0 0 1 1.32-3.14l8.14-6.36a.17.17 0 0 0 0-.14l-8.37-14.38a.11.11 0 0 0 -.13 0l-9.54 3.79a3.48 3.48 0 0 1 -3.37-.43 28.62 28.62 0 0 0 -5.24-3 3.5 3.5 0 0 1 -2.06-2.7l-1.43-10.3h-16.78l-1.53 10.26a3.5 3.5 0 0 1 -2 2.7 29.8 29.8 0 0 0 -5.31 3.04 3.47 3.47 0 0 1 -3.35.41l-9.61-3.86-8.42 14.51 8.14 6.46a3.48 3.48 0 0 1 1.32 3.14 25.68 25.68 0 0 0 0 6.07 3.5 3.5 0 0 1 -1.32 3.15l-8.14 6.36a.44.44 0 0 0 0 .14l8.31 14.38a.14.14 0 0 0 .13 0l9.56-3.76a3.44 3.44 0 0 1 1.32-.29zm19.24-12.3a10.7 10.7 0 1 1 10.63-9.33 10.68 10.68 0 0 1 -9.19 9.24 10.81 10.81 0 0 1 -1.44.09zm0-17.43c-.22 0-.45 0-.68 0a6.71 6.71 0 0 0 -4 11.49 6.71 6.71 0 1 0 4.67-11.47z" fill="#ed3724"/></svg>