<svg viewBox="0 0 89.38 79.11" xmlns="http://www.w3.org/2000/svg"><g fill="#ed3724"><path d="m81.92 15.58h-27.29a3.44 3.44 0 0 1 -3.21-2.17l-3.51-8.73a7.41 7.41 0 0 0 -6.91-4.68h-33.54a7.47 7.47 0 0 0 -7.46 7.46v64.2a7.46 7.46 0 0 0 7.46 7.45h74.46a7.46 7.46 0 0 0 7.46-7.45v-48.66a7.47 7.47 0 0 0 -7.46-7.42zm3.46 56.08a3.47 3.47 0 0 1 -3.46 3.45h-74.46a3.46 3.46 0 0 1 -3.46-3.45v-64.2a3.46 3.46 0 0 1 3.46-3.46h33.54a3.44 3.44 0 0 1 3.2 2.17l3.51 8.73a7.43 7.43 0 0 0 6.92 4.68h27.29a3.47 3.47 0 0 1 3.46 3.42z"/><path d="m58.74 37.56h-28.1a2 2 0 0 0 0 4h28.1a2 2 0 1 0 0-4z"/></g></svg>